<svg viewBox="0 0 200 200" xmlns="http://www.w3.org/2000/svg">
                <!-- Background -->
                <rect x="20" y="20" width="160" height="160" rx="10" fill="#f8fafc" stroke="#e2e8f0" stroke-width="2"></rect>
                
                <!-- Header -->
                <rect x="20" y="20" width="160" height="30" rx="10" fill="#0891b2"></rect>
                <circle cx="35" cy="35" r="3" fill="white" opacity="0.8"></circle>
                <circle cx="45" cy="35" r="3" fill="white" opacity="0.8"></circle>
                <circle cx="55" cy="35" r="3" fill="white" opacity="0.8"></circle>
                
                <!-- Status rows with gray placeholders -->
                <!-- Row 1 -->
                <g>
                    <rect x="35" y="65" width="40" height="8" rx="2" fill="#cbd5e1"></rect>
                    <circle cx="150" cy="69" r="5" fill="#cbd5e1"></circle>
                    <line x1="35" y1="80" x2="165" y2="80" stroke="#e2e8f0" stroke-width="1"></line>
                </g>
                
                <!-- Row 2 -->
                <g>
                    <rect x="35" y="88" width="50" height="8" rx="2" fill="#cbd5e1"></rect>
                    <circle cx="150" cy="92" r="5" fill="#cbd5e1"></circle>
                    <line x1="35" y1="103" x2="165" y2="103" stroke="#e2e8f0" stroke-width="1"></line>
                </g>
                
                <!-- Row 3 -->
                <g>
                    <rect x="35" y="111" width="35" height="8" rx="2" fill="#cbd5e1"></rect>
                    <circle cx="150" cy="115" r="5" fill="#cbd5e1"></circle>
                    <line x1="35" y1="126" x2="165" y2="126" stroke="#e2e8f0" stroke-width="1"></line>
                </g>
                
                <!-- Row 4 -->
                <g>
                    <rect x="35" y="134" width="45" height="8" rx="2" fill="#cbd5e1"></rect>
                    <circle cx="150" cy="138" r="5" fill="#cbd5e1"></circle>
                    <line x1="35" y1="149" x2="165" y2="149" stroke="#e2e8f0" stroke-width="1"></line>
                </g>
                
                <!-- Row 5 -->
                <g>
                    <rect x="35" y="157" width="55" height="8" rx="2" fill="#cbd5e1"></rect>
                    <circle cx="150" cy="161" r="5" fill="#cbd5e1"></circle>
                </g>
            </svg>